<?xml version="1.0" standalone="no"?>
<!DOCTYPE svg PUBLIC "-//W3C//DTD SVG 20010904//EN"
 "http://www.w3.org/TR/2001/REC-SVG-20010904/DTD/svg10.dtd">
<svg version="1.0" xmlns="http://www.w3.org/2000/svg"
 width="303.000000pt" height="174.000000pt" viewBox="0 0 303.000000 174.000000"
 preserveAspectRatio="xMidYMid meet">
<metadata>
Created by potrace 1.14, written by Peter Selinger 2001-2017
</metadata>
<g transform="translate(0.000000,174.000000) scale(0.100000,-0.100000)"
fill="#000000" stroke="none">
<path d="M610 1435 l0 -105 355 0 355 0 0 105 0 105 -355 0 -355 0 0 -105z"/>
<path d="M1330 1435 l0 -105 255 0 255 0 0 105 0 105 -255 0 -255 0 0 -105z"/>
<path d="M1850 1435 l0 -105 185 0 185 0 0 105 0 105 -185 0 -185 0 0 -105z"/>
<path d="M2230 1435 l0 -105 395 0 395 0 0 105 0 105 -395 0 -395 0 0 -105z"/>
<path d="M0 995 l0 -105 300 0 300 0 0 105 0 105 -300 0 -300 0 0 -105z"/>
<path d="M610 995 l0 -105 355 0 355 0 0 105 0 105 -355 0 -355 0 0 -105z"/>
<path d="M1330 995 l0 -105 255 0 255 0 0 105 0 105 -255 0 -255 0 0 -105z"/>
<path d="M1850 995 l0 -105 185 0 185 0 0 105 0 105 -185 0 -185 0 0 -105z"/>
<path d="M2230 995 l0 -105 395 0 395 0 0 105 0 105 -395 0 -395 0 0 -105z"/>
<path d="M0 775 l0 -105 300 0 300 0 0 105 0 105 -300 0 -300 0 0 -105z"/>
<path d="M610 775 l0 -105 355 0 355 0 0 105 0 105 -355 0 -355 0 0 -105z"/>
<path d="M1330 775 l0 -105 255 0 255 0 0 105 0 105 -255 0 -255 0 0 -105z"/>
<path d="M1850 775 l0 -105 185 0 185 0 0 105 0 105 -185 0 -185 0 0 -105z"/>
<path d="M2230 775 l0 -105 395 0 395 0 0 105 0 105 -395 0 -395 0 0 -105z"/>
<path d="M0 555 l0 -105 300 0 300 0 0 105 0 105 -300 0 -300 0 0 -105z"/>
<path d="M610 555 l0 -105 355 0 355 0 0 105 0 105 -355 0 -355 0 0 -105z"/>
<path d="M1330 555 l0 -105 255 0 255 0 0 105 0 105 -255 0 -255 0 0 -105z"/>
<path d="M1850 555 l0 -105 185 0 185 0 0 105 0 105 -185 0 -185 0 0 -105z"/>
<path d="M2230 555 l0 -105 395 0 395 0 0 105 0 105 -395 0 -395 0 0 -105z"/>
<path d="M0 335 l0 -105 300 0 300 0 0 105 0 105 -300 0 -300 0 0 -105z"/>
<path d="M610 335 l0 -105 355 0 355 0 0 105 0 105 -355 0 -355 0 0 -105z"/>
<path d="M1330 335 l0 -105 255 0 255 0 0 105 0 105 -255 0 -255 0 0 -105z"/>
<path d="M1850 335 l0 -105 185 0 185 0 0 105 0 105 -185 0 -185 0 0 -105z"/>
<path d="M2230 335 l0 -105 395 0 395 0 0 105 0 105 -395 0 -395 0 0 -105z"/>
<path d="M0 115 l0 -105 300 0 300 0 0 105 0 105 -300 0 -300 0 0 -105z"/>
<path d="M610 115 l0 -105 355 0 355 0 0 105 0 105 -355 0 -355 0 0 -105z"/>
<path d="M1330 115 l0 -105 255 0 255 0 0 105 0 105 -255 0 -255 0 0 -105z"/>
<path d="M1850 115 l0 -105 185 0 185 0 0 105 0 105 -185 0 -185 0 0 -105z"/>
<path d="M2230 115 l0 -105 395 0 395 0 0 105 0 105 -395 0 -395 0 0 -105z"/>
</g>
</svg>
